<svg width="400" height="300" viewBox="0 0 400 300" xmlns="http://www.w3.org/2000/svg">
  <defs>
    <linearGradient id="gradient1" x1="0%" y1="0%" x2="100%" y2="100%">
      <stop offset="0%" style="stop-color:#3b82f6;stop-opacity:1" />
      <stop offset="100%" style="stop-color:#1d4ed8;stop-opacity:1" />
    </linearGradient>
    <linearGradient id="gradient2" x1="0%" y1="0%" x2="100%" y2="100%">
      <stop offset="0%" style="stop-color:#10b981;stop-opacity:1" />
      <stop offset="100%" style="stop-color:#059669;stop-opacity:1" />
    </linearGradient>
    <filter id="glow">
      <feGaussianBlur stdDeviation="3" result="coloredBlur"/>
      <feMerge> 
        <feMergeNode in="coloredBlur"/>
        <feMergeNode in="SourceGraphic"/>
      </feMerge>
    </filter>
  </defs>
  <rect width="100%" height="100%" fill="#f8fafc"/>
  
  <!-- Network nodes -->
  <circle cx="100" cy="100" r="15" fill="url(#gradient1)" filter="url(#glow)"/>
  <circle cx="300" cy="100" r="15" fill="url(#gradient1)" filter="url(#glow)"/>
  <circle cx="200" cy="200" r="15" fill="url(#gradient2)" filter="url(#glow)"/>
  <circle cx="50" cy="200" r="12" fill="url(#gradient1)" opacity="0.8"/>
  <circle cx="350" cy="200" r="12" fill="url(#gradient1)" opacity="0.8"/>
  
  <!-- Network connections -->
  <line x1="100" y1="100" x2="300" y2="100" stroke="#3b82f6" stroke-width="2" opacity="0.6"/>
  <line x1="100" y1="100" x2="200" y2="200" stroke="#3b82f6" stroke-width="2" opacity="0.6"/>
  <line x1="300" y1="100" x2="200" y2="200" stroke="#3b82f6" stroke-width="2" opacity="0.6"/>
  <line x1="50" y1="200" x2="200" y2="200" stroke="#10b981" stroke-width="2" opacity="0.6"/>
  <line x1="350" y1="200" x2="200" y2="200" stroke="#10b981" stroke-width="2" opacity="0.6"/>
  
  <!-- Data flow animation paths -->
  <path d="M100,100 Q200,50 300,100" stroke="#60a5fa" stroke-width="1" fill="none" opacity="0.4"/>
  <path d="M50,200 Q125,150 200,200" stroke="#34d399" stroke-width="1" fill="none" opacity="0.4"/>
  
  <!-- Text labels -->
  <text x="200" y="250" text-anchor="middle" font-family="Arial, sans-serif" font-size="14" fill="#1f2937">Network Topology</text>
</svg>