<svg width="400" height="300" viewBox="0 0 400 300" xmlns="http://www.w3.org/2000/svg">
  <defs>
    <linearGradient id="gradient1" x1="0%" y1="0%" x2="100%" y2="100%">
      <stop offset="0%" style="stop-color:#3b82f6;stop-opacity:1" />
      <stop offset="100%" style="stop-color:#1d4ed8;stop-opacity:1" />
    </linearGradient>
    <linearGradient id="gradient2" x1="0%" y1="0%" x2="100%" y2="100%">
      <stop offset="0%" style="stop-color:#10b981;stop-opacity:1" />
      <stop offset="100%" style="stop-color:#059669;stop-opacity:1" />
    </linearGradient>
  </defs>
  <rect width="100%" height="100%" fill="#f8fafc"/>
  
  <!-- Protocol layers -->
  <rect x="50" y="50" width="300" height="40" rx="5" fill="url(#gradient1)" opacity="0.8"/>
  <text x="200" y="75" text-anchor="middle" font-family="Arial, sans-serif" font-size="12" fill="white">Application Layer</text>
  
  <rect x="50" y="100" width="300" height="40" rx="5" fill="url(#gradient1)" opacity="0.6"/>
  <text x="200" y="125" text-anchor="middle" font-family="Arial, sans-serif" font-size="12" fill="white">Protocol Layer</text>
  
  <rect x="50" y="150" width="300" height="40" rx="5" fill="url(#gradient2)" opacity="0.8"/>
  <text x="200" y="175" text-anchor="middle" font-family="Arial, sans-serif" font-size="12" fill="white">Blockchain Layer</text>
  
  <rect x="50" y="200" width="300" height="40" rx="5" fill="url(#gradient2)" opacity="0.6"/>
  <text x="200" y="225" text-anchor="middle" font-family="Arial, sans-serif" font-size="12" fill="white">Network Layer</text>
  
  <!-- Arrows -->
  <path d="M370,70 L390,70 L385,60 M390,70 L385,80" stroke="#1f2937" stroke-width="2" fill="none"/>
  <path d="M370,120 L390,120 L385,110 M390,120 L385,130" stroke="#1f2937" stroke-width="2" fill="none"/>
  <path d="M370,170 L390,170 L385,160 M390,170 L385,180" stroke="#1f2937" stroke-width="2" fill="none"/>
</svg>