<svg width="400" height="300" viewBox="0 0 400 300" xmlns="http://www.w3.org/2000/svg">
  <defs>
    <linearGradient id="gradient1" x1="0%" y1="0%" x2="100%" y2="100%">
      <stop offset="0%" style="stop-color:#3b82f6;stop-opacity:1" />
      <stop offset="100%" style="stop-color:#1d4ed8;stop-opacity:1" />
    </linearGradient>
    <linearGradient id="gradient2" x1="0%" y1="0%" x2="100%" y2="100%">
      <stop offset="0%" style="stop-color:#10b981;stop-opacity:1" />
      <stop offset="100%" style="stop-color:#059669;stop-opacity:1" />
    </linearGradient>
  </defs>
  <rect width="100%" height="100%" fill="#f8fafc"/>
  
  <!-- Token pie chart -->
  <circle cx="200" cy="150" r="80" fill="none" stroke="#e5e7eb" stroke-width="2"/>
  
  <!-- Data Provider Incentives (35%) -->
  <path d="M 200 70 A 80 80 0 0 1 283.13 196.66 L 200 150 Z" fill="url(#gradient1)" opacity="0.8"/>
  
  <!-- User Interaction (20%) -->
  <path d="M 283.13 196.66 A 80 80 0 0 1 230.39 228.77 L 200 150 Z" fill="url(#gradient2)" opacity="0.8"/>
  
  <!-- DAO Treasury (20%) -->
  <path d="M 230.39 228.77 A 80 80 0 0 1 169.61 228.77 L 200 150 Z" fill="#f59e0b" opacity="0.8"/>
  
  <!-- Core Dev Team (15%) -->
  <path d="M 169.61 228.77 A 80 80 0 0 1 116.87 196.66 L 200 150 Z" fill="#ef4444" opacity="0.8"/>
  
  <!-- Strategic Partners (10%) -->
  <path d="M 116.87 196.66 A 80 80 0 0 1 200 70 L 200 150 Z" fill="#8b5cf6" opacity="0.8"/>
  
  <!-- Legend -->
  <rect x="320" y="70" width="12" height="12" fill="url(#gradient1)" opacity="0.8"/>
  <text x="340" y="81" font-family="Arial, sans-serif" font-size="10" fill="#1f2937">Data Providers (35%)</text>
  
  <rect x="320" y="90" width="12" height="12" fill="url(#gradient2)" opacity="0.8"/>
  <text x="340" y="101" font-family="Arial, sans-serif" font-size="10" fill="#1f2937">User Incentives (20%)</text>
  
  <rect x="320" y="110" width="12" height="12" fill="#f59e0b" opacity="0.8"/>
  <text x="340" y="121" font-family="Arial, sans-serif" font-size="10" fill="#1f2937">DAO Treasury (20%)</text>
  
  <rect x="320" y="130" width="12" height="12" fill="#ef4444" opacity="0.8"/>
  <text x="340" y="141" font-family="Arial, sans-serif" font-size="10" fill="#1f2937">Dev Team (15%)</text>
  
  <rect x="320" y="150" width="12" height="12" fill="#8b5cf6" opacity="0.8"/>
  <text x="340" y="161" font-family="Arial, sans-serif" font-size="10" fill="#1f2937">Partners (10%)</text>
</svg>