<svg width="400" height="300" viewBox="0 0 400 300" xmlns="http://www.w3.org/2000/svg">
  <defs>
    <linearGradient id="gradient1" x1="0%" y1="0%" x2="100%" y2="100%">
      <stop offset="0%" style="stop-color:#3b82f6;stop-opacity:1" />
      <stop offset="100%" style="stop-color:#1d4ed8;stop-opacity:1" />
    </linearGradient>
    <linearGradient id="gradient2" x1="0%" y1="0%" x2="100%" y2="100%">
      <stop offset="0%" style="stop-color:#10b981;stop-opacity:1" />
      <stop offset="100%" style="stop-color:#059669;stop-opacity:1" />
    </linearGradient>
    <filter id="glow">
      <feGaussianBlur stdDeviation="3" result="coloredBlur"/>
      <feMerge> 
        <feMergeNode in="coloredBlur"/>
        <feMergeNode in="SourceGraphic"/>
      </feMerge>
    </filter>
  </defs>
  <rect width="100%" height="100%" fill="#f8fafc"/>
  
  <!-- Global network representation -->
  <circle cx="200" cy="150" r="100" fill="none" stroke="#e5e7eb" stroke-width="2"/>
  
  <!-- Continents representation -->
  <path d="M150,100 Q180,80 210,100 Q240,120 270,100" fill="none" stroke="url(#gradient1)" stroke-width="3"/>
  <path d="M130,140 Q160,120 190,140 Q220,160 250,140" fill="none" stroke="url(#gradient2)" stroke-width="3"/>
  <path d="M140,180 Q170,160 200,180 Q230,200 260,180" fill="none" stroke="url(#gradient1)" stroke-width="3"/>
  
  <!-- Network nodes -->
  <circle cx="160" cy="95" r="6" fill="url(#gradient1)" filter="url(#glow)"/>
  <circle cx="200" cy="90" r="6" fill="url(#gradient2)" filter="url(#glow)"/>
  <circle cx="240" cy="95" r="6" fill="url(#gradient1)" filter="url(#glow)"/>
  
  <circle cx="150" cy="135" r="6" fill="url(#gradient2)" filter="url(#glow)"/>
  <circle cx="190" cy="135" r="6" fill="url(#gradient1)" filter="url(#glow)"/>
  <circle cx="230" cy="135" r="6" fill="url(#gradient2)" filter="url(#glow)"/>
  
  <!-- Signal waves -->
  <circle cx="200" cy="150" r="30" fill="none" stroke="#3b82f6" stroke-width="1" opacity="0.4">
    <animate attributeName="r" values="30;50;30" dur="3s" repeatCount="indefinite"/>
    <animate attributeName="opacity" values="0.4;0.1;0.4" dur="3s" repeatCount="indefinite"/>
  </circle>
  
  <text x="200" y="280" text-anchor="middle" font-family="Arial, sans-serif" font-size="14" fill="#1f2937">Global Network</text>
</svg>