<svg width="400" height="300" viewBox="0 0 400 300" xmlns="http://www.w3.org/2000/svg">
  <defs>
    <linearGradient id="gradient1" x1="0%" y1="0%" x2="100%" y2="100%">
      <stop offset="0%" style="stop-color:#3b82f6;stop-opacity:1" />
      <stop offset="100%" style="stop-color:#1d4ed8;stop-opacity:1" />
    </linearGradient>
    <linearGradient id="gradient2" x1="0%" y1="0%" x2="100%" y2="100%">
      <stop offset="0%" style="stop-color:#10b981;stop-opacity:1" />
      <stop offset="100%" style="stop-color:#059669;stop-opacity:1" />
    </linearGradient>
    <filter id="glow">
      <feGaussianBlur stdDeviation="3" result="coloredBlur"/>
      <feMerge> 
        <feMergeNode in="coloredBlur"/>
        <feMergeNode in="SourceGraphic"/>
      </feMerge>
    </filter>
  </defs>
  <rect width="100%" height="100%" fill="#f8fafc"/>
  
    <!-- Mesh network nodes -->
    <circle cx="100" cy="100" r="12" fill="url(#gradient1)" filter="url(#glow)"/>
    <circle cx="200" cy="80" r="12" fill="url(#gradient2)" filter="url(#glow)"/>
    <circle cx="300" cy="100" r="12" fill="url(#gradient1)" filter="url(#glow)"/>
    <circle cx="80" cy="180" r="12" fill="url(#gradient1)" filter="url(#glow)"/>
    <circle cx="200" cy="150" r="15" fill="url(#gradient2)" filter="url(#glow)"/>
    <circle cx="320" cy="180" r="12" fill="url(#gradient1)" filter="url(#glow)"/>
    <circle cx="120" cy="240" r="12" fill="url(#gradient1)" filter="url(#glow)"/>
    <circle cx="280" cy="240" r="12" fill="url(#gradient1)" filter="url(#glow)"/>
    
    <!-- Mesh connections -->
    <line x1="100" y1="100" x2="200" y2="80" stroke="#3b82f6" stroke-width="2" opacity="0.6"/>
    <line x1="200" y1="80" x2="300" y2="100" stroke="#3b82f6" stroke-width="2" opacity="0.6"/>
    <line x1="100" y1="100" x2="80" y2="180" stroke="#10b981" stroke-width="2" opacity="0.6"/>
    <line x1="100" y1="100" x2="200" y2="150" stroke="#10b981" stroke-width="2" opacity="0.6"/>
    <line x1="200" y1="80" x2="200" y2="150" stroke="#3b82f6" stroke-width="2" opacity="0.6"/>
    <line x1="300" y1="100" x2="320" y2="180" stroke="#10b981" stroke-width="2" opacity="0.6"/>
    <line x1="300" y1="100" x2="200" y2="150" stroke="#3b82f6" stroke-width="2" opacity="0.6"/>
    <line x1="80" y1="180" x2="200" y2="150" stroke="#10b981" stroke-width="2" opacity="0.6"/>
    <line x1="320" y1="180" x2="200" y2="150" stroke="#10b981" stroke-width="2" opacity="0.6"/>
    <line x1="80" y1="180" x2="120" y2="240" stroke="#3b82f6" stroke-width="2" opacity="0.6"/>
    <line x1="320" y1="180" x2="280" y2="240" stroke="#3b82f6" stroke-width="2" opacity="0.6"/>
    <line x1="200" y1="150" x2="120" y2="240" stroke="#10b981" stroke-width="2" opacity="0.6"/>
    <line x1="200" y1="150" x2="280" y2="240" stroke="#10b981" stroke-width="2" opacity="0.6"/>
    
    <text x="200" y="280" text-anchor="middle" font-family="Arial, sans-serif" font-size="14" fill="#1f2937">Mesh Protocol</text>
  
</svg>